<svg width="204" height="204" viewBox="0 0 204 204" fill="none" xmlns="http://www.w3.org/2000/svg">
<path d="M105.333 9.4168H112C114.258 9.4168 116.083 7.59117 116.083 5.33359C116.083 3.07614 114.258 1.25 112 1.25H105.333C103.076 1.25 101.25 3.07563 101.25 5.3332C101.25 7.59066 103.076 9.4168 105.333 9.4168Z" fill="url(#paint0_linear_47_4054)" stroke="#F4F4F5" stroke-width="1.5"/>
<path d="M136.083 85.3332C136.083 83.0756 134.258 81.25 132 81.25C129.742 81.25 127.917 83.0756 127.917 85.3332V92C127.917 94.2576 129.742 96.0832 132 96.0832C134.258 96.0832 136.083 94.2576 136.083 92V85.3332Z" fill="url(#paint1_linear_47_4054)" stroke="#F4F4F5" stroke-width="1.5"/>
<path d="M87.9168 132C87.9168 134.258 89.7424 136.083 92 136.083H98.6668C100.924 136.083 102.75 134.258 102.75 132C102.75 129.742 100.924 127.917 98.6668 127.917H92C89.7424 127.917 87.9168 129.742 87.9168 132Z" fill="url(#paint2_linear_47_4054)" stroke="#F4F4F5" stroke-width="1.5"/>
<path d="M5.3332 9.4168H12C14.2576 9.4168 16.0832 7.59117 16.0832 5.33359C16.0832 3.07614 14.2577 1.25 12 1.25H5.3332C3.07563 1.25 1.25 3.07563 1.25 5.3332C1.25 7.59066 3.07552 9.4168 5.3332 9.4168Z" fill="url(#paint3_linear_47_4054)" stroke="#F4F4F5" stroke-width="1.5"/>
<path d="M85.3332 9.4168H92C94.2576 9.4168 96.0832 7.59117 96.0832 5.33359C96.0832 3.07614 94.2577 1.25 92 1.25H85.3332C83.0756 1.25 81.25 3.07563 81.25 5.3332C81.25 7.59066 83.0755 9.4168 85.3332 9.4168Z" fill="url(#paint4_linear_47_4054)" stroke="#F4F4F5" stroke-width="1.5"/>
<path d="M132 121.25C129.742 121.25 127.917 123.076 127.917 125.333V132C127.917 134.258 129.742 136.083 132 136.083C134.258 136.083 136.083 134.258 136.083 132V125.333C136.083 123.076 134.258 121.25 132 121.25Z" fill="url(#paint5_linear_47_4054)" stroke="#F4F4F5" stroke-width="1.5"/>
<path d="M136.083 25.3332C136.083 23.0756 134.258 21.25 132 21.25C129.742 21.25 127.917 23.0756 127.917 25.3332V32C127.917 34.2576 129.742 36.0832 132 36.0832C134.258 36.0832 136.083 34.2576 136.083 32V25.3332Z" fill="url(#paint6_linear_47_4054)" stroke="#F4F4F5" stroke-width="1.5"/>
<path d="M125.333 9.4168H127.916V12C127.916 14.2576 129.742 16.0832 132 16.0832C134.257 16.0832 136.083 14.2576 136.083 12V5.3332C136.083 3.07563 134.257 1.25 132 1.25H125.333C123.075 1.25 121.25 3.07563 121.25 5.3332C121.25 7.59078 123.076 9.4168 125.333 9.4168Z" fill="url(#paint7_linear_47_4054)" stroke="#F4F4F5" stroke-width="1.5"/>
<path d="M136.083 105.333C136.083 103.076 134.258 101.25 132 101.25C129.742 101.25 127.917 103.076 127.917 105.333V112C127.917 114.258 129.742 116.083 132 116.083C134.258 116.083 136.083 114.258 136.083 112V105.333Z" fill="url(#paint8_linear_47_4054)" stroke="#F4F4F5" stroke-width="1.5"/>
<path d="M132 41.25C129.742 41.25 127.917 43.0756 127.917 45.3332V52C127.917 54.2576 129.742 56.0832 132 56.0832C134.258 56.0832 136.083 54.2576 136.083 52V45.3332C136.083 43.0756 134.258 41.25 132 41.25Z" fill="url(#paint9_linear_47_4054)" stroke="#F4F4F5" stroke-width="1.5"/>
<path d="M5.3332 29.4168C7.59078 29.4168 9.41641 27.5912 9.41641 25.3336V18.6668C9.41641 16.4092 7.59078 14.5836 5.3332 14.5836C3.07563 14.5836 1.25 16.4092 1.25 18.6668V25.3336C1.25 27.5907 3.07557 29.4168 5.3332 29.4168Z" fill="url(#paint10_linear_47_4054)" stroke="#F4F4F5" stroke-width="1.5"/>
<path d="M107.917 132C107.917 134.258 109.742 136.083 112 136.083H118.667C120.924 136.083 122.75 134.258 122.75 132C122.75 129.742 120.924 127.917 118.667 127.917H112C109.742 127.917 107.917 129.742 107.917 132Z" fill="url(#paint11_linear_47_4054)" stroke="#F4F4F5" stroke-width="1.5"/>
<path d="M38.6668 127.917H32C29.7424 127.917 27.9168 129.742 27.9168 132C27.9168 134.258 29.7424 136.083 32 136.083H38.6668C40.9244 136.083 42.75 134.258 42.75 132C42.75 129.742 40.9243 127.917 38.6668 127.917Z" fill="url(#paint12_linear_47_4054)" stroke="#F4F4F5" stroke-width="1.5"/>
<path d="M56.0832 5.3332C56.0832 3.07563 54.2576 1.25 52 1.25H45.3332C43.0756 1.25 41.25 3.07563 41.25 5.3332C41.25 7.59078 43.0756 9.41641 45.3332 9.41641H51.9998C51.9999 9.41641 51.9999 9.41641 52 9.41641C54.2578 9.4168 56.0832 7.59058 56.0832 5.3332Z" fill="url(#paint13_linear_47_4054)" stroke="#F4F4F5" stroke-width="1.5"/>
<path d="M76.0832 5.3332C76.0832 3.07563 74.2576 1.25 72 1.25H65.3332C63.0756 1.25 61.25 3.07563 61.25 5.3332C61.25 7.59078 63.0756 9.41641 65.3332 9.41641H71.9998C71.9999 9.41641 71.9999 9.41641 72 9.41641C74.2578 9.4168 76.0832 7.59058 76.0832 5.3332Z" fill="url(#paint14_linear_47_4054)" stroke="#F4F4F5" stroke-width="1.5"/>
<path d="M58.6668 127.917H52C49.7424 127.917 47.9168 129.742 47.9168 132C47.9168 134.258 49.7424 136.083 52 136.083H58.6668C60.9244 136.083 62.75 134.258 62.75 132C62.75 129.742 60.9244 127.917 58.6668 127.917Z" fill="url(#paint15_linear_47_4054)" stroke="#F4F4F5" stroke-width="1.5"/>
<path d="M5.3332 49.4168C7.59078 49.4168 9.41641 47.5912 9.41641 45.3336V38.6668C9.41641 36.4092 7.59078 34.5836 5.3332 34.5836C3.07563 34.5836 1.25 36.4092 1.25 38.6668V45.3336C1.25 47.5907 3.07557 49.4168 5.3332 49.4168Z" fill="url(#paint16_linear_47_4054)" stroke="#F4F4F5" stroke-width="1.5"/>
<path d="M36.0832 5.3332C36.0832 3.07563 34.2576 1.25 32 1.25H25.3332C23.0756 1.25 21.25 3.07563 21.25 5.3332C21.25 7.59078 23.0756 9.41641 25.3332 9.41641H31.9998C31.9999 9.41641 31.9999 9.41641 32 9.41641C34.2578 9.4168 36.0832 7.59058 36.0832 5.3332Z" fill="url(#paint17_linear_47_4054)" stroke="#F4F4F5" stroke-width="1.5"/>
<path d="M18.6668 127.917H12C9.74244 127.917 7.91681 129.742 7.91681 132C7.91681 134.258 9.74244 136.083 12 136.083H18.6668C20.9244 136.083 22.75 134.258 22.75 132C22.75 129.742 20.9244 127.917 18.6668 127.917Z" fill="url(#paint18_linear_47_4054)" stroke="#F4F4F5" stroke-width="1.5"/>
<path d="M5.3332 89.4168C7.59078 89.4168 9.41641 87.5912 9.41641 85.3336V78.6668C9.41641 76.4092 7.59078 74.5836 5.3332 74.5836C3.07563 74.5836 1.25 76.4092 1.25 78.6668V85.3336C1.25 87.5907 3.07557 89.4168 5.3332 89.4168Z" fill="url(#paint19_linear_47_4054)" stroke="#F4F4F5" stroke-width="1.5"/>
<path d="M5.3332 69.4168C7.59078 69.4168 9.41641 67.5912 9.41641 65.3336V58.6668C9.41641 56.4092 7.59078 54.5836 5.3332 54.5836C3.07563 54.5836 1.25 56.4092 1.25 58.6668V65.3336C1.25 67.5907 3.07557 69.4168 5.3332 69.4168Z" fill="url(#paint20_linear_47_4054)" stroke="#F4F4F5" stroke-width="1.5"/>
<path d="M5.3332 109.417C7.59078 109.417 9.41641 107.591 9.41641 105.334V98.6668C9.41641 96.4092 7.59078 94.5836 5.3332 94.5836C3.07563 94.5836 1.25 96.4092 1.25 98.6668V105.334C1.25 107.591 3.07557 109.417 5.3332 109.417Z" fill="url(#paint21_linear_47_4054)" stroke="#F4F4F5" stroke-width="1.5"/>
<path d="M9.41641 119.417H9.4168V118.667C9.4168 116.409 7.59117 114.584 5.33359 114.584C3.07614 114.584 1.25 116.409 1.25 118.667V125.334C1.25 127.591 3.07563 129.417 5.3332 129.417C7.59078 129.417 9.41641 127.591 9.41641 125.334V119.417Z" fill="url(#paint22_linear_47_4054)" stroke="#F4F4F5" stroke-width="1.5"/>
<path d="M149.037 23.8094C149.029 23.8258 149.021 23.8422 149.013 23.8586C148.946 23.9941 148.887 24.1344 148.839 24.2797C148.835 24.2902 148.83 24.3004 148.827 24.3109C148.782 24.4535 148.747 24.6012 148.72 24.7516C148.714 24.7891 148.709 24.8266 148.703 24.8641C148.686 24.9891 148.674 25.116 148.671 25.2453C148.67 25.273 148.666 25.3004 148.666 25.3285C148.666 25.3301 148.666 25.3316 148.666 25.3332C148.666 25.4793 148.679 25.6223 148.697 25.7633C148.702 25.8051 148.709 25.8465 148.716 25.8879C148.741 26.0383 148.773 26.1859 148.817 26.3289C148.818 26.3324 148.82 26.3359 148.821 26.3398C148.869 26.4902 148.929 26.6348 148.997 26.775C149.004 26.791 149.009 26.8074 149.016 26.8234L152.35 33.4902C152.936 34.6602 154.113 35.3336 155.336 35.3336C155.836 35.3336 156.346 35.2203 156.823 34.9836C158.47 34.157 159.14 32.157 158.316 30.5102L157.755 29.3871C166.003 31.4887 172.511 37.9965 174.613 46.2453L173.49 45.6836C171.843 44.8668 169.846 45.5301 169.016 47.177C168.193 48.8234 168.863 50.8234 170.51 51.6504L177.177 54.9836C177.2 54.9949 177.223 55.0027 177.247 55.0137C177.32 55.0484 177.395 55.0805 177.472 55.1098C177.513 55.1258 177.554 55.141 177.596 55.1551C177.671 55.1805 177.747 55.2019 177.824 55.2223C177.865 55.2328 177.905 55.2449 177.947 55.2539C178.03 55.2723 178.115 55.2855 178.2 55.2973C178.235 55.3019 178.27 55.3094 178.304 55.3133C178.423 55.3262 178.544 55.3336 178.667 55.3336C178.777 55.3336 178.886 55.3277 178.995 55.3172C179.075 55.3094 179.152 55.2961 179.229 55.2828C179.257 55.2781 179.286 55.2754 179.313 55.2699C179.412 55.2508 179.508 55.2258 179.603 55.198C179.61 55.1961 179.618 55.1945 179.625 55.1926C180.172 55.0289 180.66 54.7285 181.049 54.3309L187.69 47.6902C188.993 46.3867 188.993 44.2801 187.69 42.977C186.386 41.6734 184.28 41.6734 182.977 42.977L181.127 44.8266C178.47 34.0375 169.963 25.5309 159.173 22.873L161.023 21.0234C162.327 19.7203 162.327 17.6133 161.023 16.3102C159.72 15.0066 157.613 15.0066 156.31 16.3102L149.67 22.9508C149.541 23.0766 149.425 23.2137 149.318 23.359C149.308 23.3723 149.298 23.3852 149.288 23.3984C149.195 23.5289 149.111 23.666 149.037 23.8094Z" fill="url(#paint23_linear_47_4054)"/>
<path d="M198.667 67.9168H136.083V65.3336C136.083 63.076 134.258 61.2504 132 61.2504C129.742 61.2504 127.917 63.076 127.917 65.3336V72C127.917 74.2576 129.742 76.0832 132 76.0832H194.583V194.583H76.0832V136.083H78.6664C80.924 136.083 82.7496 134.258 82.7496 132C82.7496 129.742 80.924 127.917 78.6664 127.917H72C69.7424 127.917 67.9168 129.742 67.9168 132V198.667C67.9168 200.924 69.7424 202.75 72 202.75H198.667C200.924 202.75 202.75 200.924 202.75 198.667V72C202.75 69.7424 200.924 67.9168 198.667 67.9168Z" fill="url(#paint24_linear_47_4054)" stroke="#F4F4F5" stroke-width="1.5"/>
<defs>
<linearGradient id="paint0_linear_47_4054" x1="101.164" y1="5.70378" x2="115.953" y2="5.61467" gradientUnits="userSpaceOnUse">
<stop stop-color="#4001D6"/>
<stop offset="1" stop-color="#9326E9"/>
</linearGradient>
<linearGradient id="paint1_linear_47_4054" x1="128.249" y1="89.4073" x2="135.643" y2="89.3962" gradientUnits="userSpaceOnUse">
<stop stop-color="#4001D6"/>
<stop offset="1" stop-color="#9326E9"/>
</linearGradient>
<linearGradient id="paint2_linear_47_4054" x1="87.8312" y1="132.37" x2="102.619" y2="132.281" gradientUnits="userSpaceOnUse">
<stop stop-color="#4001D6"/>
<stop offset="1" stop-color="#9326E9"/>
</linearGradient>
<linearGradient id="paint3_linear_47_4054" x1="1.1644" y1="5.70378" x2="15.9525" y2="5.61467" gradientUnits="userSpaceOnUse">
<stop stop-color="#4001D6"/>
<stop offset="1" stop-color="#9326E9"/>
</linearGradient>
<linearGradient id="paint4_linear_47_4054" x1="81.1644" y1="5.70378" x2="95.9525" y2="5.61467" gradientUnits="userSpaceOnUse">
<stop stop-color="#4001D6"/>
<stop offset="1" stop-color="#9326E9"/>
</linearGradient>
<linearGradient id="paint5_linear_47_4054" x1="128.249" y1="129.407" x2="135.643" y2="129.396" gradientUnits="userSpaceOnUse">
<stop stop-color="#4001D6"/>
<stop offset="1" stop-color="#9326E9"/>
</linearGradient>
<linearGradient id="paint6_linear_47_4054" x1="128.249" y1="29.4073" x2="135.643" y2="29.3962" gradientUnits="userSpaceOnUse">
<stop stop-color="#4001D6"/>
<stop offset="1" stop-color="#9326E9"/>
</linearGradient>
<linearGradient id="paint7_linear_47_4054" x1="121.164" y1="9.40733" x2="135.953" y2="9.36278" gradientUnits="userSpaceOnUse">
<stop stop-color="#4001D6"/>
<stop offset="1" stop-color="#9326E9"/>
</linearGradient>
<linearGradient id="paint8_linear_47_4054" x1="128.249" y1="109.407" x2="135.643" y2="109.396" gradientUnits="userSpaceOnUse">
<stop stop-color="#4001D6"/>
<stop offset="1" stop-color="#9326E9"/>
</linearGradient>
<linearGradient id="paint9_linear_47_4054" x1="128.249" y1="49.4073" x2="135.643" y2="49.3962" gradientUnits="userSpaceOnUse">
<stop stop-color="#4001D6"/>
<stop offset="1" stop-color="#9326E9"/>
</linearGradient>
<linearGradient id="paint10_linear_47_4054" x1="1.58221" y1="22.7409" x2="8.9763" y2="22.7298" gradientUnits="userSpaceOnUse">
<stop stop-color="#4001D6"/>
<stop offset="1" stop-color="#9326E9"/>
</linearGradient>
<linearGradient id="paint11_linear_47_4054" x1="107.831" y1="132.37" x2="122.619" y2="132.281" gradientUnits="userSpaceOnUse">
<stop stop-color="#4001D6"/>
<stop offset="1" stop-color="#9326E9"/>
</linearGradient>
<linearGradient id="paint12_linear_47_4054" x1="27.8312" y1="132.37" x2="42.6193" y2="132.281" gradientUnits="userSpaceOnUse">
<stop stop-color="#4001D6"/>
<stop offset="1" stop-color="#9326E9"/>
</linearGradient>
<linearGradient id="paint13_linear_47_4054" x1="41.1644" y1="5.70356" x2="55.9525" y2="5.61445" gradientUnits="userSpaceOnUse">
<stop stop-color="#4001D6"/>
<stop offset="1" stop-color="#9326E9"/>
</linearGradient>
<linearGradient id="paint14_linear_47_4054" x1="61.1644" y1="5.70356" x2="75.9525" y2="5.61445" gradientUnits="userSpaceOnUse">
<stop stop-color="#4001D6"/>
<stop offset="1" stop-color="#9326E9"/>
</linearGradient>
<linearGradient id="paint15_linear_47_4054" x1="47.8312" y1="132.37" x2="62.6193" y2="132.281" gradientUnits="userSpaceOnUse">
<stop stop-color="#4001D6"/>
<stop offset="1" stop-color="#9326E9"/>
</linearGradient>
<linearGradient id="paint16_linear_47_4054" x1="1.58221" y1="42.7409" x2="8.9763" y2="42.7298" gradientUnits="userSpaceOnUse">
<stop stop-color="#4001D6"/>
<stop offset="1" stop-color="#9326E9"/>
</linearGradient>
<linearGradient id="paint17_linear_47_4054" x1="21.1644" y1="5.70356" x2="35.9525" y2="5.61445" gradientUnits="userSpaceOnUse">
<stop stop-color="#4001D6"/>
<stop offset="1" stop-color="#9326E9"/>
</linearGradient>
<linearGradient id="paint18_linear_47_4054" x1="7.83121" y1="132.37" x2="22.6193" y2="132.281" gradientUnits="userSpaceOnUse">
<stop stop-color="#4001D6"/>
<stop offset="1" stop-color="#9326E9"/>
</linearGradient>
<linearGradient id="paint19_linear_47_4054" x1="1.58221" y1="82.7409" x2="8.9763" y2="82.7298" gradientUnits="userSpaceOnUse">
<stop stop-color="#4001D6"/>
<stop offset="1" stop-color="#9326E9"/>
</linearGradient>
<linearGradient id="paint20_linear_47_4054" x1="1.58221" y1="62.7409" x2="8.9763" y2="62.7298" gradientUnits="userSpaceOnUse">
<stop stop-color="#4001D6"/>
<stop offset="1" stop-color="#9326E9"/>
</linearGradient>
<linearGradient id="paint21_linear_47_4054" x1="1.58221" y1="102.741" x2="8.9763" y2="102.73" gradientUnits="userSpaceOnUse">
<stop stop-color="#4001D6"/>
<stop offset="1" stop-color="#9326E9"/>
</linearGradient>
<linearGradient id="paint22_linear_47_4054" x1="1.58219" y1="122.741" x2="8.97671" y2="122.73" gradientUnits="userSpaceOnUse">
<stop stop-color="#4001D6"/>
<stop offset="1" stop-color="#9326E9"/>
</linearGradient>
<linearGradient id="paint23_linear_47_4054" x1="146.159" y1="37.5553" x2="190.526" y2="37.4217" gradientUnits="userSpaceOnUse">
<stop stop-color="#4001D6"/>
<stop offset="1" stop-color="#9326E9"/>
</linearGradient>
<linearGradient id="paint24_linear_47_4054" x1="60.3108" y1="139.778" x2="208.197" y2="139.354" gradientUnits="userSpaceOnUse">
<stop stop-color="#4001D6"/>
<stop offset="1" stop-color="#9326E9"/>
</linearGradient>
</defs>
</svg>
