<svg width="25" height="22" viewBox="0 0 25 22" fill="none" xmlns="http://www.w3.org/2000/svg">
<path d="M16.0291 18.4369C15.9959 18.4049 15.9515 18.387 15.9053 18.387H9.09477C9.04856 18.387 9.00413 18.4049 8.97084 18.437L6.68355 20.6409C6.64862 20.6746 6.62891 20.721 6.62891 20.7695V21.2506C6.62891 21.3493 6.70884 21.4292 6.80748 21.4292H18.1927C18.2914 21.4292 18.3713 21.3493 18.3713 21.2506V20.7695C18.3713 20.721 18.3516 20.6746 18.3166 20.6409L16.0291 18.4369Z" fill="#00B0EF"/>
<path d="M24.5043 0H0.49593C0.222215 0 0 0.222001 0 0.495859V17.5068C0 17.7809 0.222215 18.0029 0.49593 18.0029H24.5042C24.778 18.0029 25 17.7809 25 17.5068V0.495859C25.0001 0.222001 24.7781 0 24.5043 0ZM12.5 17.0853C12.1989 17.0853 11.9547 16.841 11.9547 16.5398C11.9547 16.2384 12.1989 15.9942 12.5 15.9942C12.8014 15.9942 13.0455 16.2384 13.0455 16.5398C13.0455 16.8411 12.8014 17.0853 12.5 17.0853ZM23.0046 14.9023H1.99565V2.35644H23.0046V14.9023H23.0046Z" fill="#00B0EF"/>
<path d="M8.57136 8.51652H10.9936C11.0742 8.51652 11.1397 8.45117 11.1397 8.37045V5.41044C11.1397 5.3663 11.1197 5.32451 11.0854 5.2968C11.0511 5.26901 11.0062 5.25837 10.9629 5.26758L8.54065 5.78837C8.47336 5.80287 8.42529 5.86237 8.42529 5.93123V8.37045C8.42529 8.45109 8.49072 8.51652 8.57136 8.51652Z" fill="#00B0EF"/>
<path d="M11.9014 12.5503L14.9695 13.2096C14.9797 13.2117 14.99 13.2128 15.0002 13.2128C15.0333 13.2128 15.0658 13.2016 15.0921 13.1803C15.1264 13.1526 15.1464 13.1108 15.1464 13.0667V9.30876C15.1464 9.22805 15.0809 9.16269 15.0003 9.16269H11.9322C11.8516 9.16269 11.7861 9.22805 11.7861 9.30876V12.4076C11.786 12.4763 11.8341 12.5358 11.9014 12.5503Z" fill="#00B0EF"/>
<path d="M11.9318 8.51652H14.9999C15.0805 8.51652 15.1459 8.45116 15.1459 8.37045V4.61244C15.1459 4.5683 15.126 4.52651 15.0917 4.49879C15.0574 4.47101 15.0122 4.46037 14.9692 4.46958L11.9011 5.1288C11.8338 5.1433 11.7856 5.2028 11.7856 5.27165V8.37045C11.7857 8.45109 11.8511 8.51652 11.9318 8.51652Z" fill="#00B0EF"/>
<path d="M8.54065 11.8909L10.9629 12.4117C10.9731 12.4138 10.9834 12.4149 10.9936 12.4149C11.0267 12.4149 11.0592 12.4037 11.0854 12.3825C11.1197 12.3547 11.1397 12.313 11.1397 12.2688V9.30873C11.1397 9.22802 11.0742 9.16266 10.9936 9.16266H8.57136C8.49072 9.16266 8.42529 9.22802 8.42529 9.30873V11.748C8.42529 11.8169 8.47329 11.8764 8.54065 11.8909Z" fill="#00B0EF"/>
</svg>
